HIERARCHY
ROOT Hips
{
	OFFSET 0.000000 0.000000 0.000000
	CHANNELS 6 Xposition Yposition Zposition Zrotation Yrotation Xrotation 
	JOINT LHipJoint
	{
		OFFSET 0.000000 0.000000 0.000000
		CHANNELS 3 Zrotation Yrotation Xrotation
		JOINT LeftUpLeg
		{
			OFFSET 1.363060 -1.794630 0.839290
			CHANNELS 3 Zrotation Yrotation Xrotation
			JOINT LeftLeg
			{
				OFFSET 2.448110 -6.726130 0.000000
				CHANNELS 3 Zrotation Yrotation Xrotation
				JOINT LeftFoot
				{
					OFFSET 2.562200 -7.039590 0.000000
					CHANNELS 3 Zrotation Yrotation Xrotation
					JOINT LeftToeBase
					{
						OFFSET 0.157640 -0.433110 2.322550
						CHANNELS 3 Zrotation Yrotation Xrotation
						End Site
						{
							OFFSET 0.000000 0.000000 0.000000
						}
					}
				}
			}
		}
	}
	JOINT RHipJoint
	{
		OFFSET 0.000000 0.000000 0.000000
		CHANNELS 3 Zrotation Yrotation Xrotation
		JOINT RightUpLeg
		{
			OFFSET -1.305520 -1.794630 0.839290
			CHANNELS 3 Zrotation Yrotation Xrotation
			JOINT RightLeg
			{
				OFFSET -2.542530 -6.985550 0.000000
				CHANNELS 3 Zrotation Yrotation Xrotation
				JOINT RightFoot
				{
					OFFSET -2.568260 -7.056230 0.000000
					CHANNELS 3 Zrotation Yrotation Xrotation
					JOINT RightToeBase
					{
						OFFSET -0.164730 -0.452590 2.363150
						CHANNELS 3 Zrotation Yrotation Xrotation
						End Site
						{
							OFFSET 0.000000 0.000000 0.000000
						}
					}
				}
			}
		}
	}
}
MOTION
Frames: 13
Frame Time: 0.008333
-5.958299 15.906430 0.686521 -112.288987 88.158653 -91.069252 -8.946630 -1.803578 -2.459286 -19.525610 3.131932 -60.632835 -1.632903 3.172201 48.057201 3.240864 13.798598 -14.892431 -1.275200 0.000000 -3.254700 10.336602 -1.991176 -6.142447 10.147367 -14.600538 -24.617130 1.479442 -4.686156 57.647005 0.031924 4.210320 -14.131041 -0.334400 0.000000 -69.012000
-5.836791 15.893779 0.666174 -113.586733 88.068991 -92.563074 -8.981869 -1.821815 -2.495576 -19.367906 3.114429 -60.332920 -1.571336 3.214806 49.037923 3.311110 14.016270 -15.843355 -1.568100 -0.000000 -3.439300 10.440580 -2.011662 -6.183125 9.789091 -14.887025 -24.792687 1.246262 -4.807055 58.915180 0.111714 4.463545 -12.392778 -0.297700 -0.000000 -70.706100
-5.716916 15.883047 0.644842 -114.460785 87.964646 -93.633075 -9.016668 -1.841708 -2.528388 -19.183763 3.079182 -59.946376 -1.517588 3.239520 49.874724 3.390102 14.267919 -16.817072 -1.877900 0.000000 -3.700100 10.539278 -2.023667 -6.224428 9.453557 -15.136329 -24.984151 1.009739 -4.922167 60.176083 0.170776 4.671297 -10.624679 -0.229000 0.000000 -72.025500
-5.598669 15.874053 0.622121 -114.770254 87.830957 -94.137914 -9.053051 -1.867541 -2.559026 -18.954208 3.036973 -59.492409 -1.467865 3.249788 50.594380 3.474085 14.544872 -17.782303 -2.196700 0.000000 -3.916300 10.629891 -2.031005 -6.263091 9.165891 -15.329088 -25.179829 0.774674 -5.029716 61.414352 0.207948 4.823069 -8.861764 -0.133200 0.000000 -72.959200
-5.481862 15.866773 0.598386 -114.594545 87.677851 -94.158679 -9.089270 -1.896041 -2.588069 -18.691154 2.988899 -58.980473 -1.420371 3.248581 51.215364 3.560366 14.844190 -18.707200 -2.516200 0.000000 -4.017500 10.715836 -2.031896 -6.298419 8.914177 -15.473595 -25.381314 0.542200 -5.129636 62.627955 0.225583 4.927740 -7.098068 -0.015300 -0.000000 -73.560500
-5.366435 15.861197 0.573806 -114.050844 87.507896 -93.812604 -9.126095 -1.926356 -2.616185 -18.399768 2.939832 -58.427198 -1.373301 3.239630 51.762492 3.645836 15.158318 -19.570631 -2.829100 0.000000 -3.955500 10.796875 -2.026872 -6.329289 8.699347 -15.572192 -25.588341 0.313481 -5.221383 63.811760 0.224908 4.986504 -5.325453 0.120700 0.000000 -73.869600
-5.252351 15.857271 0.548559 -113.278717 87.321703 -93.237182 -9.164738 -1.958087 -2.644011 -18.084966 2.895240 -57.851681 -1.325604 3.226655 52.260247 3.727346 15.476239 -20.361248 -3.129800 -0.000001 -3.716500 10.871633 -2.016934 -6.354293 8.526018 -15.623812 -25.802117 0.090253 -5.304385 64.961702 0.206637 4.995892 -3.548950 0.269400 -0.000000 -73.888700
-5.139470 15.855087 0.523010 -112.483747 87.127343 -92.637003 -9.205683 -1.988723 -2.671257 -17.761093 2.855853 -57.265204 -1.277550 3.212170 52.722981 3.802799 15.789178 -21.074382 -3.414100 0.000000 -3.332100 10.939919 -2.001544 -6.373403 8.386348 -15.639114 -26.027258 -0.127159 -5.378602 66.077104 0.171804 4.957627 -1.751240 0.427300 -0.000000 -73.646700
-5.027815 15.854636 0.497468 -111.829799 86.930044 -92.173853 -9.249302 -2.016800 -2.697943 -17.439464 2.822718 -56.677831 -1.230029 3.198017 53.161106 3.870553 16.086913 -21.714769 -3.680000 -0.000000 -2.858000 11.001040 -1.980620 -6.387018 8.277076 -15.626371 -26.268642 -0.337831 -5.444214 67.158002 0.120791 4.868833 0.075427 0.589400 -0.000000 -73.144700
-4.917254 15.856001 0.472293 -111.503523 86.739069 -92.033464 -9.295656 -2.039834 -2.722955 -17.135843 2.791824 -56.091662 -1.184744 3.184656 53.575292 3.930080 16.361732 -22.293201 -3.928100 -0.000001 -2.352100 11.054749 -1.953238 -6.396835 8.186264 -15.602836 -26.532075 -0.540992 -5.501804 68.205531 0.054024 4.730737 1.947477 0.751900 0.000000 -72.383900
-4.807833 15.859120 0.447568 -111.567593 86.554504 -92.276339 -9.345033 -2.057761 -2.746049 -16.854588 2.764585 -55.510116 -1.143304 3.172175 53.964343 3.981073 16.605089 -22.825604 -4.160000 0.000000 -1.881801 11.099823 -1.920133 -6.403198 8.115476 -15.571806 -26.820846 -0.734708 -5.551860 69.220566 -0.028414 4.534105 3.851338 0.906201 -0.000000 -71.339500
-4.699525 15.863938 0.423396 -112.095052 86.379910 -92.974972 -9.397085 -2.069460 -2.766351 -16.603304 2.738154 -54.929747 -1.107620 3.159718 54.319966 4.024127 16.812257 -23.328720 -4.378900 0.000000 -1.496100 11.136045 -1.880964 -6.408101 8.057987 -15.545488 -27.138782 -0.917312 -5.595454 70.205457 -0.125744 4.274732 5.776492 1.043300 -0.000000 -70.006100
-4.592281 15.870318 0.399760 -113.091422 86.214073 -94.134140 -9.451774 -2.074705 -2.783408 -16.383758 2.712310 -54.346035 -1.079292 3.146273 54.632719 4.059903 16.979417 -23.818067 -4.587900 0.000000 -1.229500 11.162810 -1.836154 -6.412748 8.012193 -15.528848 -27.487629 -1.086920 -5.633662 71.161907 -0.236540 3.944954 7.692874 1.151200 0.000000 -68.388400
